# xmcd CD database file
#
# Track frame offsets:
#	182
#	14710
#	28762
#	42937
#	58942
#	71915
#	86752
#	99485
#	114467
#	128052
#	141547
#	156187
#	168275
#	182337
#	196132
#	208867
#	224482
#	237492
#	250990
#	264545
#	279855
#	294292
#	306017
#
# Disc length: 4285 seconds
#
# Revision: 0
# Processed by: cddbd v1.5.2PL0 Copyright (c) Steve Scherf et al.
# Submitted via: CDex 1.70beta1
#
DISCID=5e10bb17
DTITLE=Various Artist - Memorable Recordings (Topaz)
DYEAR=1900
DGENRE=Jazz
TTITLE0=Steamboat Stomp - Jelly Roll Mortons Red Hot Peppers
TTITLE1=Jazz Me Blues - Bix Beiderbeke and His Gang
TTITLE2=Apex Blues - Jimmie Noone's Apex Club Orchestra
TTITLE3=Toby - Benny Motens Kansas City Orchestra
TTITLE4=Queer Notions - Fletcher Henderson and His Orchestra
TTITLE5=Moods - Luis Russell and His Orchestra
TTITLE6=Maple Leaf Rag - Earl Hines and His Orchestra 
TTITLE7=Nothin' But The Blues - Gene Gifford and His Orchestra
TTITLE8=Barrelhouse - Jess Stacy
TTITLE9=Boogie Woogie Stomp - Albert Ammons and His Rhythm Kings
TTITLE10=Porter's Love Song To A Chambermaid - Mildred Bailey and Red Norvo Orchestra
TTITLE11=Organ Grinder's Swing - Jimmie Lunsford Orchestra
TTITLE12=Mood That I'm In - Billie Holiday and Teddy Wilson Orchestra
TTITLE13=Crazy Rhythm - Coleman Hawkins
TTITLE14=I Got Rhythm - Bud Freeman Trio
TTITLE15=Shoe Shiner's Drag - Lionel Hampton Orchestra
TTITLE16=South Rampart Street Parade - Bob Crosby and His Orchestra
TTITLE17=I Don't Stand A Ghost Of A Chance With You -  Cab Calloway and Orchestra
TTITLE18=Blues In Thirds - Sidney Bechet Trio
TTITLE19=When It's Sleepy Time Down South - Lois Armstrong Orchestra
TTITLE20=Perdido - Duke Ellington and His Famous Orchestra
TTITLE21=World Is Waiting For The Sunrise - Mel Powell& His Orchestra
TTITLE22=DA Blues - Pee Wee Russell's Hot Four
EXTD=
EXTT0=
EXTT1=
EXTT2=
EXTT3=
EXTT4=
EXTT5=
EXTT6=
EXTT7=
EXTT8=
EXTT9=
EXTT10=
EXTT11=
EXTT12=
EXTT13=
EXTT14=
EXTT15=
EXTT16=
EXTT17=
EXTT18=
EXTT19=
EXTT20=
EXTT21=
EXTT22=
PLAYORDER=
